<svg style="display: none;" aria-hidden="true" xmlns="http://www.w3.org/2000/svg" xmlns:xlink="http://www.w3.org/1999/xlink"><symbol viewBox="0 0 24 24" id="svg-arrow"><path fill-rule="evenodd" clip-rule="evenodd" d="M21.783 15.4985L20.3481 16.9333L12.0001 8.58531L3.65211 16.9333L2.21729 15.4985L11.9987 5.71704L21.783 15.4985Z"/></symbol><symbol viewBox="0 0 24 24" id="svg-donate"><path fill-rule="evenodd" clip-rule="evenodd" d="M11.9998 1.94995C14.0341 1.94995 15.7036 3.61942 15.7036 5.6538L15.6536 6.33457L19.3117 6.38124L19.3574 7.06689L20.0881 20.2206L20.0839 21.05L3.86572 20.997L3.91139 20.2207L4.64219 7.06634L4.73775 6.33457L8.29592 6.38457V5.6538C8.29592 3.61942 9.9654 1.94995 11.9998 1.94995ZM11.9998 3.51149C10.817 3.51149 9.85746 4.47108 9.85746 5.6538L9.80746 6.33457L14.1421 6.38457V5.6538C14.1421 4.47108 13.1825 3.51149 11.9998 3.51149ZM6.15507 7.89611L5.46852 19.4884L18.4811 19.5411L17.8916 7.89611L15.7036 7.84611L15.6536 10.0884L14.1421 10.0384L14.1921 7.89611L9.85746 7.84611L9.80746 10.0884L8.29592 10.0384L8.34592 7.89611H6.15507Z"/></symbol><symbol viewBox="0 0 24 24" id="svg-forum"><path fill-rule="evenodd" clip-rule="evenodd" d="M12 2.5L11.4761 3.00114L2 12.4772L3.04784 13.5251L3.98178 12.5911V21.0194H10.5421V13.7301H13.4579V21.0194H20.0182V12.5911L20.9522 13.5251L22 12.4772L12.5239 3.00114L12 2.5ZM12 4.57289L18.5604 11.1333V19.5615H14.9157V12.2722H9.08428V19.5615H5.43964V11.1333L12 4.57289Z"/></symbol><symbol viewBox="0 0 24 24" id="svg-login"><path fill-rule="evenodd" clip-rule="evenodd" d="M11.6366 2.44995C14.5182 2.44995 16.8684 4.80011 16.8684 7.68177C16.8684 10.5634 14.5182 12.9136 11.6366 12.9136C8.7549 12.9136 6.40474 10.5634 6.40474 7.68177C6.40474 4.80011 8.7549 2.44995 11.6366 2.44995ZM11.6366 12.8136C16.4209 12.8136 20.3229 16.7156 20.2729 21.5499L18.4957 21.5C18.4957 17.7019 15.4346 14.6409 11.6366 14.6409C7.83853 14.6409 4.77747 17.7019 4.72747 21.5499L2.9502 21.5C2.9502 16.7156 6.8522 12.8136 11.6366 12.8136ZM11.6366 4.27722C9.74798 4.27722 8.23201 5.79319 8.23201 7.68177C8.23201 9.57035 9.74798 11.0863 11.6366 11.0863C13.5251 11.0863 15.0411 9.57035 15.0411 7.68177C15.0411 5.79319 13.5251 4.27722 11.6366 4.27722Z"/></symbol><symbol viewBox="0 0 30 30" id="svg-online"><path d="M25.6066 4.39336C22.7735 1.56029 19.0066 0 15 0C10.9934 0 7.22654 1.56029 4.39336 4.39336C1.56029 7.22648 0 10.9934 0 15C0 19.0066 1.56029 22.7735 4.39336 25.6066C7.22654 28.4397 10.9934 30 15 30C19.0066 30 22.7735 28.4397 25.6066 25.6066C28.4397 22.7735 30 19.0066 30 15C30 10.9934 28.4397 7.22648 25.6066 4.39336ZM15 29.1211C7.21359 29.1211 0.878906 22.7864 0.878906 15C0.878906 7.21359 7.21359 0.878906 15 0.878906C22.7864 0.878906 29.1211 7.21359 29.1211 15C29.1211 22.7864 22.7864 29.1211 15 29.1211Z"/><path d="M24.3636 5.63637C21.8625 3.13523 18.5371 1.75781 15 1.75781C11.4629 1.75781 8.1375 3.13523 5.63637 5.63637C3.13523 8.1375 1.75781 11.4629 1.75781 15C1.75781 16.643 2.05588 18.2477 2.64381 19.7696C2.73123 19.996 2.98559 20.1088 3.21211 20.0213C3.43852 19.9338 3.55113 19.6794 3.46365 19.453C2.96748 18.1685 2.69326 16.8203 2.64516 15.4395H7.28373C7.32568 18.282 7.77422 20.9937 8.55258 23.2948C7.95709 23.5791 7.37842 23.9038 6.82002 24.2681C5.77623 23.3477 4.87951 22.2449 4.18313 20.9902C4.06535 20.7779 3.79781 20.7013 3.58564 20.8192C3.37342 20.937 3.29689 21.2044 3.41467 21.4167C4.21348 22.8559 5.25809 24.1086 6.47906 25.1344C6.49377 25.1487 6.50947 25.1614 6.52576 25.1733C7.79051 26.226 9.24234 27.036 10.8052 27.5589C10.8396 27.5756 10.876 27.5872 10.9132 27.5945C12.2147 28.0175 13.5914 28.2422 15 28.2422C18.5371 28.2422 21.8625 26.8648 24.3636 24.3636C26.8648 21.8625 28.2422 18.5371 28.2422 15C28.2422 11.4629 26.8648 8.1375 24.3636 5.63637ZM9.86543 3.75451C9.49166 4.39945 9.15398 5.11061 8.85486 5.87561C8.40539 5.65775 7.96646 5.41494 7.53937 5.14834C8.25768 4.60307 9.03697 4.13426 9.86543 3.75451ZM2.64539 14.5605C2.76861 11.052 4.36049 7.91109 6.82412 5.73463C7.38129 6.09779 7.95856 6.42158 8.55258 6.70518C7.77422 9.00627 7.32574 11.718 7.28373 14.5605H2.64539ZM7.53592 24.8537C7.96412 24.5863 8.40422 24.3428 8.85486 24.1244C9.15375 24.8889 9.49125 25.5997 9.86473 26.2443C9.04031 25.8674 8.25908 25.4012 7.53592 24.8537ZM14.5605 27.3554C13.4273 27.3151 12.3199 27.1194 11.2644 26.7842C10.6441 25.9407 10.1038 24.9202 9.65561 23.7671C11.2058 23.1322 12.8618 22.779 14.5605 22.7271V27.3554ZM14.5605 21.8478C12.7588 21.8997 11.0021 22.2705 9.35672 22.9398C8.62553 20.7492 8.20365 18.1612 8.16258 15.4395H14.5605V21.8478ZM14.5605 14.5605H8.16258C8.20365 11.8388 8.62553 9.25078 9.35672 7.0602C11.0021 7.72945 12.7588 8.10029 14.5605 8.15221V14.5605ZM14.5605 7.27301C12.8617 7.22104 11.2058 6.86789 9.65561 6.23291C10.1043 5.07873 10.6451 4.0575 11.2661 3.21352C12.3114 2.88164 13.4164 2.68559 14.5605 2.64539V7.27301V7.27301ZM27.3546 14.5605H22.7163C22.6743 11.718 22.2258 9.00627 21.4474 6.70518C22.0414 6.42158 22.6187 6.09779 23.1759 5.73463C25.6395 7.91109 27.2314 11.052 27.3546 14.5605ZM22.4606 5.14834C22.0335 5.41494 21.5946 5.6577 21.1451 5.87561C20.846 5.11061 20.5083 4.39945 20.1346 3.75457C20.963 4.13432 21.7423 4.60307 22.4606 5.14834ZM15.4395 2.64539C16.5836 2.68553 17.6886 2.88158 18.7339 3.21352C19.3549 4.0575 19.8957 5.07873 20.3445 6.23291C18.7943 6.86789 17.1383 7.22104 15.4395 7.27301V2.64539ZM15.4395 8.15221C17.2412 8.10029 18.9979 7.72945 20.6433 7.0602C21.3745 9.25078 21.7964 11.8388 21.8374 14.5605H15.4395V8.15221ZM15.4395 15.4395H21.8374C21.7963 18.1612 21.3745 20.7492 20.6433 22.9398C18.9979 22.2705 17.2412 21.8997 15.4395 21.8478V15.4395ZM15.4395 27.3546V22.727C17.1383 22.779 18.7942 23.1321 20.3444 23.7671C19.8957 24.9213 19.3549 25.9425 18.7339 26.7865C17.6886 27.1184 16.5836 27.3144 15.4395 27.3546ZM20.1346 26.2455C20.5083 25.6005 20.846 24.8894 21.1451 24.1244C21.5946 24.3422 22.0335 24.5851 22.4606 24.8517C21.7423 25.3969 20.963 25.8657 20.1346 26.2455ZM23.1759 24.2654C22.6187 23.9022 22.0414 23.5784 21.4474 23.2948C22.2258 20.9937 22.6743 18.282 22.7163 15.4395H27.3546C27.2314 18.948 25.6395 22.0889 23.1759 24.2654Z"/></symbol></svg>