<svg width="50" height="50" viewBox="0 0 50 50" fill="none" xmlns="http://www.w3.org/2000/svg">
<g clip-path="url(#clip0_261_57)">
<path d="M49.7349 36.4997C49.6744 36.3692 49.618 36.261 49.5655 36.1743C48.698 34.6119 47.0403 32.6942 44.5932 30.4205L44.5415 30.3685L44.5156 30.3429L44.4895 30.3168H44.4632C43.3526 29.2581 42.6493 28.5462 42.3548 28.1818C41.8159 27.4875 41.6952 26.7848 41.9897 26.0727C42.1978 25.5348 42.9794 24.3987 44.3327 22.6628C45.0446 21.7429 45.6083 21.0056 46.0247 20.4501C49.0274 16.4582 50.3292 13.9073 49.9298 12.7965L49.7747 12.5369C49.6705 12.3806 49.4015 12.2376 48.9681 12.1072C48.5337 11.9771 47.9785 11.9556 47.3015 12.0423L39.8042 12.0941C39.6827 12.0511 39.5093 12.0551 39.2834 12.1072C39.0577 12.1594 38.9448 12.1856 38.9448 12.1856L38.8143 12.2508L38.7108 12.3291C38.6239 12.3809 38.5285 12.472 38.4243 12.6022C38.3206 12.7319 38.2339 12.8842 38.1646 13.0577C37.3483 15.1577 36.4203 17.1102 35.3787 18.915C34.7365 19.9912 34.1468 20.9239 33.6082 21.7136C33.0703 22.5031 32.619 23.0847 32.2548 23.4576C31.8901 23.8308 31.561 24.1298 31.2653 24.3556C30.9702 24.5816 30.7449 24.677 30.5889 24.6421C30.4325 24.6072 30.2852 24.5725 30.1458 24.5379C29.903 24.3816 29.7077 24.1691 29.5604 23.9001C29.4125 23.6311 29.313 23.2925 29.2609 22.8847C29.2091 22.4766 29.1785 22.1255 29.1697 21.8304C29.1616 21.5356 29.1653 21.1186 29.1829 20.5806C29.201 20.0424 29.2091 19.6782 29.2091 19.4873C29.2091 18.8277 29.222 18.1118 29.2478 17.3395C29.274 16.5672 29.2953 15.9553 29.3131 15.5045C29.3307 15.0532 29.339 14.5758 29.339 14.0725C29.339 13.5691 29.3083 13.1744 29.2478 12.8879C29.188 12.6018 29.0961 12.3241 28.9751 12.0548C28.8534 11.7858 28.6752 11.5777 28.4415 11.43C28.2072 11.2825 27.916 11.1654 27.5694 11.0784C26.6495 10.8703 25.4781 10.7577 24.0546 10.7402C20.8267 10.7055 18.7526 10.9139 17.8328 11.3652C17.4683 11.5559 17.1385 11.8164 16.8437 12.1459C16.5312 12.5279 16.4876 12.7363 16.7132 12.7706C17.7546 12.9266 18.4919 13.2998 18.9259 13.8898L19.0822 14.2025C19.2039 14.4281 19.3253 14.8274 19.4469 15.4001C19.5682 15.9727 19.6466 16.6061 19.681 17.3C19.7677 18.5672 19.7677 19.6519 19.681 20.5542C19.5941 21.4569 19.5121 22.1596 19.4337 22.6629C19.3554 23.1663 19.2383 23.5741 19.0822 23.8864C18.9259 24.1988 18.8218 24.3897 18.7697 24.459C18.7176 24.5283 18.6742 24.572 18.6397 24.5891C18.4142 24.6756 18.1795 24.7196 17.9367 24.7196C17.6936 24.7196 17.3987 24.598 17.0516 24.3549C16.7047 24.1118 16.3446 23.7779 15.9714 23.3526C15.5982 22.9273 15.1773 22.3329 14.7085 21.5693C14.2402 20.8058 13.7542 19.9033 13.2508 18.862L12.8344 18.1069C12.5741 17.6211 12.2185 16.9137 11.7672 15.9854C11.3157 15.0567 10.9166 14.1584 10.5696 13.2906C10.431 12.9261 10.2226 12.6487 9.94496 12.4577L9.81467 12.3794C9.72804 12.3101 9.58899 12.2365 9.39824 12.1581C9.20722 12.0798 9.00789 12.0236 8.79945 11.9891L1.66643 12.0409C0.937526 12.0409 0.442959 12.206 0.182545 12.5358L0.0783248 12.6918C0.0262602 12.7787 0 12.9175 0 13.1085C0 13.2994 0.0520645 13.5338 0.156285 13.8112C1.19758 16.2585 2.32996 18.6188 3.55343 20.8923C4.7769 23.1658 5.84007 24.9972 6.74231 26.3848C7.64473 27.7734 8.56457 29.0839 9.50182 30.3158C10.4391 31.5481 11.0595 32.3378 11.363 32.6848C11.6669 33.0323 11.9056 33.2922 12.0792 33.4657L12.7301 34.0904C13.1466 34.507 13.7583 35.006 14.5653 35.5872C15.3725 36.1689 16.2662 36.7415 17.2468 37.306C18.2275 37.8696 19.3685 38.3295 20.6703 38.6852C21.9719 39.0413 23.2387 39.1842 24.4711 39.1152H27.4649C28.0721 39.0628 28.5321 38.8719 28.8448 38.5423L28.9483 38.4119C29.018 38.3083 29.0832 38.1473 29.1434 37.9308C29.2043 37.7139 29.2346 37.4749 29.2346 37.2149C29.2168 36.4688 29.2736 35.7963 29.4034 35.1976C29.5332 34.5991 29.6811 34.1479 29.8465 33.8439C30.0118 33.5403 30.1983 33.2841 30.406 33.0764C30.614 32.8682 30.7623 32.7421 30.8493 32.6987C30.9357 32.655 31.0047 32.6254 31.0568 32.6076C31.4733 32.4688 31.9635 32.6032 32.5281 33.0115C33.0923 33.4193 33.6214 33.9229 34.1163 34.5214C34.611 35.1205 35.2053 35.7926 35.8994 36.5387C36.5939 37.2851 37.2012 37.84 37.7216 38.205L38.2421 38.5174C38.5897 38.7258 39.0409 38.9167 39.5964 39.0902C40.1509 39.2637 40.6367 39.3071 41.0538 39.2204L47.718 39.1164C48.3772 39.1164 48.8901 39.0073 49.2539 38.7907C49.6184 38.5738 49.835 38.3348 49.9048 38.0749C49.9745 37.8146 49.9782 37.5194 49.918 37.1893C49.8563 36.86 49.7955 36.6298 49.7349 36.4997Z" fill="white"/>
</g>
<defs>
<clipPath id="clip0_261_57">
<rect width="50" height="50" fill="white"/>
</clipPath>
</defs>
</svg>
