<svg width="966" height="179" viewBox="0 0 966 179" fill="none" xmlns="http://www.w3.org/2000/svg">
<g filter="url(#filter0_d_407_44)">
<path d="M5 164H961V174H5V164Z" fill="#D40087"/>
</g>
<path d="M12 140V0H37.4L63.6 45.2L89.6 0H115V140H89.8V49.6L78 70.2L63.6 95.4L49 70.2L37.2 49.6V140H12Z" fill="#D40087"/>
<path d="M222.988 0C229.521 0 235.121 2.4 239.788 7.2C244.588 11.8667 246.988 17.4667 246.988 24V116C246.988 122.533 244.588 128.2 239.788 133C235.121 137.667 229.521 140 222.988 140H192.387C185.854 140 180.187 137.667 175.387 133C170.721 128.2 168.387 122.533 168.387 116V24C168.387 17.4667 170.721 11.8667 175.387 7.2C180.187 2.4 185.854 0 192.387 0H222.988ZM221.788 114.8V25.2H193.587V114.8H221.788Z" fill="#D40087"/>
<path d="M300.203 140V0H325.203L359.003 58.2V0H384.003V140H359.003V108.4L325.203 50.2V140H300.203Z" fill="#D40087"/>
<path d="M429.85 0H518.05V25.2H486.45V140H461.45V25.2H429.85V0Z" fill="#D40087"/>
<path d="M587.802 56.2H626.602V81.4H587.802V109C587.802 110.6 588.402 112 589.602 113.2C590.802 114.267 592.202 114.8 593.802 114.8H626.602V140H586.802C580.268 140 574.602 137.667 569.802 133C565.135 128.2 562.802 122.533 562.802 116V24C562.802 17.4667 565.135 11.8667 569.802 7.2C574.602 2.4 580.268 0 586.802 0H626.602V25.2H593.802C592.202 25.2 590.802 25.8 589.602 27C588.402 28.0667 587.802 29.4 587.802 31V56.2Z" fill="#D40087"/>
<path d="M811.767 94L834.367 140H806.367L784.367 95H778.367V140H753.367V0H778.367H804.567C811.234 0 816.901 2.4 821.567 7.2C826.367 11.8667 828.767 17.4667 828.767 24V71C828.767 76.3333 827.167 81.1333 823.967 85.4C820.767 89.6667 816.701 92.5333 811.767 94ZM803.567 70V25.2H778.367V70H803.567Z" fill="#D40087"/>
<path d="M934.411 0C941.078 0 946.744 2.4 951.411 7.2C956.211 11.8667 958.611 17.4667 958.611 24V71C958.611 77.6667 956.211 83.3333 951.411 88C946.744 92.6667 941.078 95 934.411 95H908.411V140H883.211V0H908.411H934.411ZM933.411 70V25.2H908.411V70H933.411Z" fill="#D40087"/>
<defs>
<filter id="filter0_d_407_44" x="0" y="159" width="966" height="20" filterUnits="userSpaceOnUse" color-interpolation-filters="sRGB">
<feFlood flood-opacity="0" result="BackgroundImageFix"/>
<feColorMatrix in="SourceAlpha" type="matrix" values="0 0 0 0 0 0 0 0 0 0 0 0 0 0 0 0 0 0 127 0" result="hardAlpha"/>
<feOffset/>
<feGaussianBlur stdDeviation="2.5"/>
<feComposite in2="hardAlpha" operator="out"/>
<feColorMatrix type="matrix" values="0 0 0 0 0.901961 0 0 0 0 0.0666667 0 0 0 0 0.47451 0 0 0 1 0"/>
<feBlend mode="normal" in2="BackgroundImageFix" result="effect1_dropShadow_407_44"/>
<feBlend mode="normal" in="SourceGraphic" in2="effect1_dropShadow_407_44" result="shape"/>
</filter>
</defs>
</svg>
