<svg width="179" height="51" viewBox="0 0 179 51" fill="none" xmlns="http://www.w3.org/2000/svg">
<g filter="url(#filter0_d_407_67)">
<path d="M5 45H174V46H5V45Z" fill="#D40087"/>
</g>
<path d="M6.75 35V0H13.1L19.65 11.3L26.15 0H32.5V35H26.2V12.4L23.25 17.55L19.65 23.85L16 17.55L13.05 12.4V35H6.75Z" fill="white"/>
<path d="M49.4969 0C51.1302 0 52.5302 0.6 53.6969 1.8C54.8969 2.96667 55.4969 4.36667 55.4969 6V29C55.4969 30.6333 54.8969 32.05 53.6969 33.25C52.5302 34.4167 51.1302 35 49.4969 35H41.8469C40.2135 35 38.7969 34.4167 37.5969 33.25C36.4302 32.05 35.8469 30.6333 35.8469 29V6C35.8469 4.36667 36.4302 2.96667 37.5969 1.8C38.7969 0.6 40.2135 0 41.8469 0H49.4969ZM49.1969 28.7V6.3H42.1469V28.7H49.1969Z" fill="white"/>
<path d="M58.8008 35V0H65.0508L73.5008 14.55V0H79.7508V35H73.5008V27.1L65.0508 12.55V35H58.8008Z" fill="white"/>
<path d="M81.2125 0H103.262V6.3H95.3625V35H89.1125V6.3H81.2125V0Z" fill="white"/>
<path d="M110.7 14.05H120.4V20.35H110.7V27.25C110.7 27.65 110.85 28 111.15 28.3C111.45 28.5667 111.8 28.7 112.2 28.7H120.4V35H110.45C108.817 35 107.4 34.4167 106.2 33.25C105.034 32.05 104.45 30.6333 104.45 29V6C104.45 4.36667 105.034 2.96667 106.2 1.8C107.4 0.6 108.817 0 110.45 0H120.4V6.3H112.2C111.8 6.3 111.45 6.45 111.15 6.75C110.85 7.01667 110.7 7.35 110.7 7.75V14.05Z" fill="white"/>
<path d="M146.35 23.5L152 35H145L139.5 23.75H138V35H131.75V0H138H144.55C146.217 0 147.633 0.6 148.8 1.8C150 2.96667 150.6 4.36667 150.6 6V17.75C150.6 19.0833 150.2 20.2833 149.4 21.35C148.6 22.4167 147.583 23.1333 146.35 23.5ZM144.3 17.5V6.3H138V17.5H144.3Z" fill="#D40087"/>
<path d="M167.011 0C168.678 0 170.094 0.6 171.261 1.8C172.461 2.96667 173.061 4.36667 173.061 6V17.75C173.061 19.4167 172.461 20.8333 171.261 22C170.094 23.1667 168.678 23.75 167.011 23.75H160.511V35H154.211V0H160.511H167.011ZM166.761 17.5V6.3H160.511V17.5H166.761Z" fill="#D40087"/>
<defs>
<filter id="filter0_d_407_67" x="0" y="40" width="179" height="11" filterUnits="userSpaceOnUse" color-interpolation-filters="sRGB">
<feFlood flood-opacity="0" result="BackgroundImageFix"/>
<feColorMatrix in="SourceAlpha" type="matrix" values="0 0 0 0 0 0 0 0 0 0 0 0 0 0 0 0 0 0 127 0" result="hardAlpha"/>
<feOffset/>
<feGaussianBlur stdDeviation="2.5"/>
<feComposite in2="hardAlpha" operator="out"/>
<feColorMatrix type="matrix" values="0 0 0 0 0.901961 0 0 0 0 0.0666667 0 0 0 0 0.47451 0 0 0 1 0"/>
<feBlend mode="normal" in2="BackgroundImageFix" result="effect1_dropShadow_407_67"/>
<feBlend mode="normal" in="SourceGraphic" in2="effect1_dropShadow_407_67" result="shape"/>
</filter>
</defs>
</svg>
